HIERARCHY
ROOT Hips
{
	OFFSET 0.00000 0.00000 0.00000
	CHANNELS 6 Xposition Yposition Zposition Zrotation Yrotation Xrotation 
	JOINT LHipJoint
	{
		OFFSET 0 0 0
		CHANNELS 3 Zrotation Yrotation Xrotation
		JOINT LeftHip
		{
			OFFSET 1.40001 -1.72600 0.84541
			CHANNELS 3 Zrotation Yrotation Xrotation
			JOINT LeftKnee
			{
				OFFSET 2.34760 -6.44999 0.00000
				CHANNELS 3 Zrotation Yrotation Xrotation
				JOINT LeftAnkle
				{
					OFFSET 2.50650 -6.88655 0.00000
					CHANNELS 3 Zrotation Yrotation Xrotation
					JOINT LeftToe
					{
						OFFSET 0.12464 -0.34243 1.95563
						CHANNELS 3 Zrotation Yrotation Xrotation
						End Site
						{
							OFFSET 0.00000 -0.00000 1.00479
						}
					}
				}
			}
		}
	}
	JOINT RHipJoint
	{
		OFFSET 0 0 0
		CHANNELS 3 Zrotation Yrotation Xrotation
		JOINT RightHip
		{
			OFFSET -1.40958 -1.72600 0.84541
			CHANNELS 3 Zrotation Yrotation Xrotation
			JOINT RightKnee
			{
				OFFSET -2.37905 -6.53640 0.00000
				CHANNELS 3 Zrotation Yrotation Xrotation
				JOINT RightAnkle
				{
					OFFSET -2.50470 -6.88163 0.00000
					CHANNELS 3 Zrotation Yrotation Xrotation
					JOINT RightToe
					{
						OFFSET -0.12236 -0.33619 1.81785
						CHANNELS 3 Zrotation Yrotation Xrotation
						End Site
						{
							OFFSET -0.00000 -0.00000 0.93746
						}
					}
				}
			}
		}
	}
	JOINT lowerback
	{
		OFFSET 0 0 0
		CHANNELS 3 Zrotation Yrotation Xrotation
		JOINT Chest
		{
			OFFSET -0.02146 1.96915 0.26424
			CHANNELS 3 Zrotation Yrotation Xrotation
			JOINT Chest2
			{
				OFFSET 0.01522 1.99484 0.02086
				CHANNELS 3 Zrotation Yrotation Xrotation
				JOINT lowerneck
				{
					OFFSET 0 0 0
					CHANNELS 3 Zrotation Yrotation Xrotation
					JOINT Neck
					{
						OFFSET -0.02954 1.71757 0.03505
						CHANNELS 3 Zrotation Yrotation Xrotation
						JOINT Head
						{
							OFFSET 0.04170 1.65781 -0.11024
							CHANNELS 3 Zrotation Yrotation Xrotation
							End Site
							{
								OFFSET 0.01600 1.81465 -0.05144
							}
						}
					}
				}
				JOINT LeftCollar
				{
					OFFSET 0 0 0
					CHANNELS 3 Zrotation Yrotation Xrotation
					JOINT LeftShoulder
					{
						OFFSET 2.77679 1.60868 -0.78649
CHANNELS 3 Zrotation Xrotation Yrotation
						JOINT LeftElbow
						{
OFFSET 0 -4.626720 -0.000000
CHANNELS 3 Zrotation Xrotation Yrotation
							JOINT LeftWrist
							{
OFFSET 0 -3.110180 -0.000000
CHANNELS 3 Zrotation Xrotation Yrotation
								JOINT lhand
								{
									OFFSET 0 0 0
CHANNELS 3 Zrotation Xrotation Yrotation
									JOINT LFingers
									{
OFFSET 0 -0.743830 -0.000000
CHANNELS 3 Zrotation Xrotation Yrotation
										End Site
										{
OFFSET 0 -0.599700 -0.000000
										}
									}
								}
								JOINT LThumb
								{
OFFSET 0 0.000000 0.000000
CHANNELS 3 Zrotation Xrotation Yrotation
									End Site
									{
OFFSET 0 -0.608850 0.608850
									}
								}
							}
						}
					}
				}
				JOINT RightCollar
				{
					OFFSET 0 0 0
					CHANNELS 3 Zrotation Yrotation Xrotation
					JOINT RightShoulder
					{
						OFFSET -2.73247 1.63658 -0.74740
CHANNELS 3 Zrotation Xrotation Yrotation
						JOINT RightElbow
						{
OFFSET 0 -4.559190 -0.000000
CHANNELS 3 Zrotation Xrotation Yrotation
							JOINT RightWrist
							{
OFFSET 0 -3.227480 -0.000000
CHANNELS 3 Zrotation Xrotation Yrotation
								JOINT rhand
								{
									OFFSET 0 0 0
CHANNELS 3 Zrotation Xrotation Yrotation
									JOINT RFingers
									{
OFFSET 0 -0.700880 -0.000000
CHANNELS 3 Zrotation Xrotation Yrotation
										End Site
										{
OFFSET 0 -0.565070 -0.000000
										}
									}
								}
								JOINT RThumb
								{
OFFSET 0 0.000000 0.000000
CHANNELS 3 Zrotation Xrotation Yrotation
									End Site
									{
OFFSET 0 -0.573700 0.573700
									}
								}
							}
						}
					}
				}
			}
		}
	}
}
MOTION
Frames: 5
Frame Time: 0.008333333333333333
0.655029 16.382452 -2.194517 2.923025 2.367102 15.927530 0.000000 0.000000 0.000000 -25.772667 1.985866 -18.021961 2.259526 9.385744 27.010618 0.201373 -23.033282 -17.646553 0.236475 3.083647 8.515204 0.000000 0.000000 0.000000 13.235057 10.282799 -47.957902 -4.666897 -12.987299 39.339750 -0.495951 -0.759510 -13.601023 -0.484415 4.461999 -12.380370 -3.919385 -1.980920 -13.871125 0.078840 -2.097395 -4.903386 1.956935 -1.021897 2.740406 0.407602 0.500106 -5.350066 -1.080800 0.719942 7.025848 -0.390623 0.326669 3.198594 0.000000 0.000000 0.000000 7.738694 -1.501142 -28.366956 21.129715 -31.976193 6.120009 21.333615 -12.677998 15.334386 0.000000 0.000000 0.000000 -7.125000 0.000000 0.000000 -4.230691 13.608323 -3.124646 0.000000 0.000000 0.000000 2.648208 17.813627 -41.943542 -5.870505 -10.046009 -0.516434 -17.045039 54.509187 34.484659 0.000000 0.000000 0.000000 7.125000 0.000000 0.000000 20.279337 64.578593 -9.801484
0.657886 16.371555 -2.064752 3.166676 2.704306 15.909590 0.000000 0.000000 0.000000 -25.991600 2.483599 -17.249084 2.164179 9.200033 26.423053 0.257518 -23.223046 -18.152259 0.131826 2.338942 6.443411 0.000000 0.000000 0.000000 13.141172 9.865198 -48.036306 -4.191290 -12.410498 37.200450 -0.505452 -0.514730 -13.627268 -0.515444 4.601797 -12.776310 -4.067356 -2.088360 -13.816574 0.054920 -2.219785 -4.851958 1.995606 -1.083291 2.776618 0.366606 0.496717 -5.091798 -1.060801 0.714826 6.718544 -0.376869 0.325406 3.043181 0.000000 0.000000 0.000000 8.040483 -1.973427 -29.089867 21.717944 -32.656780 6.433027 21.583246 -13.554993 15.601557 0.000000 0.000000 0.000000 -7.125000 0.000000 0.000000 -4.076873 13.296368 -3.037737 0.000000 0.000000 0.000000 2.703224 18.195680 -42.993225 -5.867316 -10.040627 -0.515903 -17.121516 54.835361 34.509376 0.000000 0.000000 0.000000 7.125000 0.000000 0.000000 20.217610 64.622380 -9.791052
0.654661 16.359534 -1.939218 3.157917 3.001975 15.968536 0.000000 0.000000 0.000000 -25.907748 2.899685 -16.561753 2.063741 8.996142 25.784318 0.349561 -23.114059 -18.693929 0.060364 1.452166 3.996443 0.000000 0.000000 0.000000 13.244824 9.733722 -48.082845 -3.759977 -11.822062 35.121178 -0.473106 -0.533664 -13.194246 -0.632681 5.077105 -14.131179 -4.060960 -2.148730 -13.743843 0.103193 -2.304823 -4.826710 2.030177 -1.125514 2.771313 0.620594 0.492271 -5.065907 -1.332082 0.706272 6.489383 -0.508756 0.318392 2.963531 0.000000 0.000000 0.000000 8.341611 -2.443728 -29.662114 22.296984 -33.307948 6.749615 21.823356 -14.256532 15.884992 0.000000 0.000000 0.000000 -7.125000 0.000000 0.000000 -3.932376 12.966695 -2.956315 0.000000 0.000000 0.000000 2.768222 18.506335 -44.120720 -5.852161 -10.015346 -0.513256 -17.330412 55.307374 34.594848 0.000000 0.000000 0.000000 7.125000 0.000000 0.000000 20.066304 64.758853 -9.778175
0.651307 16.349363 -1.812142 3.119757 3.288149 16.046883 0.000000 0.000000 0.000000 -25.782391 3.210014 -15.871696 1.966761 8.795088 25.157371 0.413268 -23.010301 -19.050742 0.018759 0.860493 2.365115 0.000000 0.000000 0.000000 13.357091 9.625372 -48.133618 -3.352229 -11.233111 33.083261 -0.456891 -0.407598 -12.925094 -0.788377 5.646496 -15.767894 -4.014719 -2.203751 -13.703738 0.157266 -2.386612 -4.794791 2.047800 -1.166760 2.789270 0.820403 0.468026 -5.227400 -1.561440 0.673155 6.429344 -0.619437 0.298132 2.976229 0.000000 0.000000 0.000000 8.619427 -2.953149 -30.173764 22.844595 -33.916060 7.052418 22.235956 -14.954906 16.139080 0.000000 0.000000 0.000000 -7.125000 0.000000 0.000000 -3.672001 12.645104 -2.783769 0.000000 0.000000 0.000000 2.821584 18.747971 -45.414538 -5.830857 -9.979775 -0.509556 -17.439156 55.871601 34.569064 0.000000 0.000000 0.000000 7.125000 0.000000 0.000000 19.917183 64.764796 -9.705971
0.647852 16.341124 -1.683440 3.052317 3.562563 16.145021 0.000000 0.000000 0.000000 -25.615417 3.410675 -15.178352 1.873407 8.597085 24.542962 0.447287 -22.913558 -19.214925 0.008061 0.576777 1.584863 0.000000 0.000000 0.000000 13.477288 9.539593 -48.188966 -2.968781 -10.643686 31.088078 -0.457688 -0.129197 -12.828949 -0.983656 6.312066 -17.692979 -3.927810 -2.253451 -13.697691 0.216999 -2.465215 -4.755788 2.047800 -1.207092 2.831661 0.962261 0.423176 -5.582743 -1.745623 0.614484 6.544957 -0.707276 0.264113 3.084665 0.000000 0.000000 0.000000 8.872978 -3.503306 -30.623126 23.359537 -34.479506 7.340852 22.828172 -15.650908 16.362531 0.000000 0.000000 0.000000 -7.125000 0.000000 0.000000 -3.290945 12.332020 -2.516332 0.000000 0.000000 0.000000 2.862779 18.918135 -46.881091 -5.803217 -9.933596 -0.504772 -17.442943 56.531058 34.427140 0.000000 0.000000 0.000000 7.125000 0.000000 0.000000 19.770807 64.634366 -9.572019
